# MagicaVoxel @ Ephtracy

# group
g head

# material
mtllib head.mtl
usemtl palette

# normals
vn -1 0 0
vn 1 0 0
vn 0 0 1
vn 0 0 -1
vn 0 -1 0
vn 0 1 0

# texcoords
vt 0.00195313 0.5
vt 0.0214844 0.5
vt 0.162109 0.5
vt 0.845703 0.5
vt 0.884766 0.5
vt 0.958984 0.5
vt 0.994141 0.5

# verts
v -3.5 0 1
v -3.5 0 -1
v -3.5 1 2
v -3.5 1 1
v -3.5 1 -1
v -3.5 1 -2
v -3.5 2 2
v -3.5 2 1
v -3.5 2 -1
v -3.5 2 -2
v -3.5 3 2
v -3.5 3 1
v -3.5 3 -1
v -3.5 3 -2
v -3.5 4 1
v -3.5 4 -1
v -2.5 0 2
v -2.5 0 1
v -2.5 0 -1
v -2.5 0 -2
v -2.5 1 3
v -2.5 1 2
v -2.5 1 1
v -2.5 1 -1
v -2.5 1 -2
v -2.5 1 -3
v -2.5 2 2
v -2.5 2 -2
v -2.5 3 3
v -2.5 3 2
v -2.5 3 -2
v -2.5 3 -3
v -0.5 1 4
v -0.5 1 3
v -0.5 1 -3
v -0.5 1 -4
v -0.5 3 4
v -0.5 3 3
v -0.5 3 1
v -0.5 3 -1
v -0.5 3 -3
v -0.5 3 -4
v -0.5 4 2
v -0.5 4 1
v -0.5 4 -1
v -0.5 4 -2
v -0.5 5 3
v -0.5 5 2
v -0.5 5 1
v -0.5 5 -1
v -0.5 5 -2
v -0.5 5 -3
v 0.5 3 4
v 0.5 3 3
v 0.5 3 -3
v 0.5 3 -4
v 0.5 4 4
v 0.5 4 3
v 0.5 4 -3
v 0.5 4 -4
v 1.5 3 4
v 1.5 3 3
v 1.5 3 -3
v 1.5 3 -4
v 1.5 4 4
v 1.5 4 3
v 1.5 4 1
v 1.5 4 -1
v 1.5 4 -3
v 1.5 4 -4
v 1.5 5 3
v 1.5 5 1
v 1.5 5 -1
v 1.5 5 -3
v 2.5 1 4
v 2.5 1 3
v 2.5 1 -3
v 2.5 1 -4
v 2.5 3 4
v 2.5 3 3
v 2.5 3 -3
v 2.5 3 -4
v 3.5 0 2
v 3.5 0 -2
v 3.5 1 3
v 3.5 1 2
v 3.5 1 -2
v 3.5 1 -3
v 3.5 4 3
v 3.5 4 -3
v -0.5 1 4
v -0.5 3 4
v 0.5 3 4
v 0.5 4 4
v 1.5 3 4
v 1.5 4 4
v 2.5 1 4
v 2.5 3 4
v -2.5 1 3
v -2.5 3 3
v -0.5 1 3
v -0.5 3 3
v -0.5 5 3
v 0.5 3 3
v 0.5 4 3
v 0.5 5 3
v 1.5 3 3
v 1.5 4 3
v 1.5 5 3
v 2.5 1 3
v 2.5 3 3
v 3.5 1 3
v 3.5 4 3
v -3.5 1 2
v -3.5 2 2
v -3.5 3 2
v -2.5 0 2
v -2.5 1 2
v -2.5 2 2
v -2.5 3 2
v 3.5 0 2
v 3.5 1 2
v -3.5 0 1
v -3.5 1 1
v -3.5 3 1
v -3.5 4 1
v -2.5 0 1
v -2.5 1 1
v -0.5 3 1
v -0.5 4 1
v -0.5 4 -1
v -0.5 5 -1
v 0.5 4 -1
v 0.5 5 -1
v 1.5 4 -1
v 1.5 5 -1
v -0.5 4 1
v -0.5 5 1
v 0.5 4 1
v 0.5 5 1
v 1.5 4 1
v 1.5 5 1
v -3.5 0 -1
v -3.5 1 -1
v -3.5 3 -1
v -3.5 4 -1
v -2.5 0 -1
v -2.5 1 -1
v -0.5 3 -1
v -0.5 4 -1
v -3.5 1 -2
v -3.5 2 -2
v -3.5 3 -2
v -2.5 0 -2
v -2.5 1 -2
v -2.5 2 -2
v -2.5 3 -2
v 3.5 0 -2
v 3.5 1 -2
v -2.5 1 -3
v -2.5 3 -3
v -0.5 1 -3
v -0.5 3 -3
v -0.5 5 -3
v 0.5 3 -3
v 0.5 4 -3
v 0.5 5 -3
v 1.5 3 -3
v 1.5 4 -3
v 1.5 5 -3
v 2.5 1 -3
v 2.5 3 -3
v 3.5 1 -3
v 3.5 4 -3
v -0.5 1 -4
v -0.5 3 -4
v 0.5 3 -4
v 0.5 4 -4
v 1.5 3 -4
v 1.5 4 -4
v 2.5 1 -4
v 2.5 3 -4
v -2.5 0 2
v 3.5 0 2
v -3.5 0 1
v -2.5 0 1
v -3.5 0 -1
v -2.5 0 -1
v -2.5 0 -2
v 3.5 0 -2
v -0.5 1 4
v 2.5 1 4
v -2.5 1 3
v -0.5 1 3
v 2.5 1 3
v 3.5 1 3
v -3.5 1 2
v -2.5 1 2
v 3.5 1 2
v -3.5 1 1
v -2.5 1 1
v -3.5 1 -1
v -2.5 1 -1
v -3.5 1 -2
v -2.5 1 -2
v 3.5 1 -2
v -2.5 1 -3
v -0.5 1 -3
v 2.5 1 -3
v 3.5 1 -3
v -0.5 1 -4
v 2.5 1 -4
v -0.5 3 4
v 0.5 3 4
v 1.5 3 4
v 2.5 3 4
v -2.5 3 3
v -0.5 3 3
v 0.5 3 3
v 1.5 3 3
v 2.5 3 3
v -3.5 3 2
v -2.5 3 2
v -3.5 3 1
v -0.5 3 1
v -3.5 3 -1
v -0.5 3 -1
v -3.5 3 -2
v -2.5 3 -2
v -2.5 3 -3
v -0.5 3 -3
v 0.5 3 -3
v 1.5 3 -3
v 2.5 3 -3
v -0.5 3 -4
v 0.5 3 -4
v 1.5 3 -4
v 2.5 3 -4
v 0.5 4 4
v 1.5 4 4
v 0.5 4 3
v 1.5 4 3
v 3.5 4 3
v -3.5 4 1
v -0.5 4 1
v 0.5 4 1
v 1.5 4 1
v -3.5 4 -1
v -0.5 4 -1
v 0.5 4 -1
v 1.5 4 -1
v 0.5 4 -3
v 1.5 4 -3
v 3.5 4 -3
v 0.5 4 -4
v 1.5 4 -4
v -0.5 5 3
v 0.5 5 3
v 1.5 5 3
v -0.5 5 2
v 0.5 5 2
v -0.5 5 1
v 0.5 5 1
v 1.5 5 1
v -0.5 5 -1
v 0.5 5 -1
v 1.5 5 -1
v -0.5 5 -2
v 0.5 5 -2
v -0.5 5 -3
v 0.5 5 -3
v 1.5 5 -3

# faces
f 4/4/1 2/4/1 1/4/1
f 5/4/1 2/4/1 4/4/1
f 7/6/1 4/6/1 3/6/1
f 8/4/1 5/4/1 4/4/1
f 8/6/1 4/6/1 7/6/1
f 9/6/1 6/6/1 5/6/1
f 9/4/1 5/4/1 8/4/1
f 10/6/1 6/6/1 9/6/1
f 11/2/1 8/2/1 7/2/1
f 11/2/1 9/2/1 8/2/1
f 11/2/1 10/2/1 9/2/1
f 12/2/1 10/2/1 11/2/1
f 13/2/1 10/2/1 12/2/1
f 14/2/1 10/2/1 13/2/1
f 15/2/1 13/2/1 12/2/1
f 16/2/1 13/2/1 15/2/1
f 22/1/1 18/1/1 17/1/1
f 23/1/1 18/1/1 22/1/1
f 24/1/1 20/1/1 19/1/1
f 25/1/1 20/1/1 24/1/1
f 27/2/1 22/2/1 21/2/1
f 28/2/1 26/2/1 25/2/1
f 29/2/1 27/2/1 21/2/1
f 30/2/1 27/2/1 29/2/1
f 31/2/1 26/2/1 28/2/1
f 32/2/1 26/2/1 31/2/1
f 37/2/1 34/2/1 33/2/1
f 38/2/1 34/2/1 37/2/1
f 41/2/1 36/2/1 35/2/1
f 42/2/1 36/2/1 41/2/1
f 43/7/1 39/7/1 38/7/1
f 44/7/1 39/7/1 43/7/1
f 45/7/1 41/7/1 40/7/1
f 46/7/1 41/7/1 45/7/1
f 47/7/1 43/7/1 38/7/1
f 48/1/1 44/1/1 43/1/1
f 48/7/1 43/7/1 47/7/1
f 49/1/1 44/1/1 48/1/1
f 50/1/1 46/1/1 45/1/1
f 51/7/1 41/7/1 46/7/1
f 51/1/1 46/1/1 50/1/1
f 52/7/1 41/7/1 51/7/1
f 57/2/1 54/2/1 53/2/1
f 58/2/1 54/2/1 57/2/1
f 59/2/1 56/2/1 55/2/1
f 60/2/1 56/2/1 59/2/1
f 61/2/2 62/2/2 65/2/2
f 65/2/2 62/2/2 66/2/2
f 63/2/2 64/2/2 69/2/2
f 69/2/2 64/2/2 70/2/2
f 66/2/2 67/2/2 71/2/2
f 71/2/2 67/2/2 72/2/2
f 68/2/2 69/2/2 73/2/2
f 73/2/2 69/2/2 74/2/2
f 75/2/2 76/2/2 79/2/2
f 79/2/2 76/2/2 80/2/2
f 77/2/2 78/2/2 81/2/2
f 81/2/2 78/2/2 82/2/2
f 83/1/2 84/1/2 86/1/2
f 86/1/2 84/1/2 87/1/2
f 85/2/2 86/2/2 89/2/2
f 87/2/2 88/2/2 89/2/2
f 86/2/2 87/2/2 89/2/2
f 89/2/2 88/2/2 90/2/2
f 93/2/3 92/2/3 91/2/3
f 95/2/3 93/2/3 91/2/3
f 95/2/3 94/2/3 93/2/3
f 96/2/3 94/2/3 95/2/3
f 97/2/3 95/2/3 91/2/3
f 98/2/3 95/2/3 97/2/3
f 101/2/3 100/2/3 99/2/3
f 102/2/3 100/2/3 101/2/3
f 104/7/3 103/7/3 102/7/3
f 105/7/3 103/7/3 104/7/3
f 106/7/3 103/7/3 105/7/3
f 108/2/3 106/2/3 105/2/3
f 109/2/3 106/2/3 108/2/3
f 111/2/3 108/2/3 107/2/3
f 112/2/3 111/2/3 110/2/3
f 113/2/3 108/2/3 111/2/3
f 113/2/3 111/2/3 112/2/3
f 118/6/3 115/6/3 114/6/3
f 119/2/3 116/2/3 115/2/3
f 119/6/3 115/6/3 118/6/3
f 120/2/3 116/2/3 119/2/3
f 121/1/3 118/1/3 117/1/3
f 122/1/3 118/1/3 121/1/3
f 127/4/3 124/4/3 123/4/3
f 128/4/3 124/4/3 127/4/3
f 129/2/3 126/2/3 125/2/3
f 130/2/3 126/2/3 129/2/3
f 133/1/3 132/1/3 131/1/3
f 134/1/3 132/1/3 133/1/3
f 135/2/3 134/2/3 133/2/3
f 136/2/3 134/2/3 135/2/3
f 137/1/4 138/1/4 139/1/4
f 139/1/4 138/1/4 140/1/4
f 139/2/4 140/2/4 141/2/4
f 141/2/4 140/2/4 142/2/4
f 143/4/4 144/4/4 147/4/4
f 147/4/4 144/4/4 148/4/4
f 145/2/4 146/2/4 149/2/4
f 149/2/4 146/2/4 150/2/4
f 151/6/4 152/6/4 155/6/4
f 152/2/4 153/2/4 156/2/4
f 155/6/4 152/6/4 156/6/4
f 156/2/4 153/2/4 157/2/4
f 154/1/4 155/1/4 158/1/4
f 158/1/4 155/1/4 159/1/4
f 160/2/4 161/2/4 162/2/4
f 162/2/4 161/2/4 163/2/4
f 163/7/4 164/7/4 165/7/4
f 165/7/4 164/7/4 166/7/4
f 166/7/4 164/7/4 167/7/4
f 166/2/4 167/2/4 169/2/4
f 169/2/4 167/2/4 170/2/4
f 168/2/4 169/2/4 172/2/4
f 171/2/4 172/2/4 173/2/4
f 172/2/4 169/2/4 174/2/4
f 173/2/4 172/2/4 174/2/4
f 175/2/4 176/2/4 177/2/4
f 175/2/4 177/2/4 179/2/4
f 177/2/4 178/2/4 179/2/4
f 179/2/4 178/2/4 180/2/4
f 175/2/4 179/2/4 181/2/4
f 181/2/4 179/2/4 182/2/4
f 186/1/5 184/1/5 183/1/5
f 187/4/5 186/4/5 185/4/5
f 188/1/5 184/1/5 186/1/5
f 188/4/5 186/4/5 187/4/5
f 189/1/5 184/1/5 188/1/5
f 190/1/5 184/1/5 189/1/5
f 194/2/5 192/2/5 191/2/5
f 195/2/5 192/2/5 194/2/5
f 198/2/5 194/2/5 193/2/5
f 198/2/5 196/2/5 195/2/5
f 198/2/5 195/2/5 194/2/5
f 199/2/5 196/2/5 198/2/5
f 200/6/5 198/6/5 197/6/5
f 201/6/5 198/6/5 200/6/5
f 204/6/5 203/6/5 202/6/5
f 205/6/5 203/6/5 204/6/5
f 207/2/5 206/2/5 205/2/5
f 208/2/5 206/2/5 207/2/5
f 209/2/5 206/2/5 208/2/5
f 210/2/5 206/2/5 209/2/5
f 211/2/5 209/2/5 208/2/5
f 212/2/5 209/2/5 211/2/5
f 213/2/6 214/2/6 218/2/6
f 218/2/6 214/2/6 219/2/6
f 215/2/6 216/2/6 220/2/6
f 220/2/6 216/2/6 221/2/6
f 217/2/6 218/2/6 223/2/6
f 222/2/6 223/2/6 224/2/6
f 223/2/6 218/2/6 225/2/6
f 224/2/6 223/2/6 225/2/6
f 226/2/6 227/2/6 228/2/6
f 228/2/6 227/2/6 229/2/6
f 229/2/6 227/2/6 230/2/6
f 230/2/6 227/2/6 231/2/6
f 231/2/6 232/2/6 235/2/6
f 235/2/6 232/2/6 236/2/6
f 233/2/6 234/2/6 237/2/6
f 237/2/6 234/2/6 238/2/6
f 239/2/6 240/2/6 241/2/6
f 241/2/6 240/2/6 242/2/6
f 242/2/6 243/2/6 247/2/6
f 245/2/6 246/2/6 248/2/6
f 246/2/6 247/2/6 248/2/6
f 244/2/6 245/2/6 248/2/6
f 248/2/6 247/2/6 249/2/6
f 249/2/6 247/2/6 250/2/6
f 247/2/6 243/2/6 251/2/6
f 250/2/6 247/2/6 251/2/6
f 251/2/6 243/2/6 253/2/6
f 253/2/6 243/2/6 254/2/6
f 252/2/6 253/2/6 255/2/6
f 255/2/6 253/2/6 256/2/6
f 257/7/6 258/7/6 260/7/6
f 258/2/6 259/2/6 261/2/6
f 260/7/6 258/7/6 261/7/6
f 260/1/6 261/1/6 262/1/6
f 261/2/6 259/2/6 263/2/6
f 262/1/6 261/1/6 263/1/6
f 263/2/6 259/2/6 264/2/6
f 265/1/6 266/1/6 268/1/6
f 266/2/6 267/2/6 269/2/6
f 268/1/6 266/1/6 269/1/6
f 268/7/6 269/7/6 270/7/6
f 269/2/6 267/2/6 271/2/6
f 270/7/6 269/7/6 271/7/6
f 271/2/6 267/2/6 272/2/6
