# MagicaVoxel @ Ephtracy

# group
g tail

# material
mtllib tail.mtl
usemtl palette

# normals
vn -1 0 0
vn 1 0 0
vn 0 0 1
vn 0 0 -1
vn 0 -1 0
vn 0 1 0

# texcoords
vt 0.00195313 0.5
vt 0.0214844 0.5

# verts
v -3.5 0 1
v -3.5 0 -1
v -3.5 1 1
v -3.5 1 -1
v -1.5 0 2
v -1.5 0 1
v -1.5 0 -1
v -1.5 0 -2
v -1.5 1 2
v -1.5 1 1
v -1.5 1 -1
v -1.5 1 -2
v -1.5 2 2
v -1.5 2 -2
v 0.5 1 3
v 0.5 1 2
v 0.5 1 -2
v 0.5 1 -3
v 0.5 2 2
v 0.5 2 -2
v 0.5 3 3
v 0.5 3 2
v 0.5 3 -2
v 0.5 3 -3
v 0.5 4 2
v 0.5 4 -2
v 1.5 3 3
v 1.5 3 2
v 1.5 3 -2
v 1.5 3 -3
v 1.5 4 3
v 1.5 4 2
v 1.5 4 -2
v 1.5 4 -3
v 3.5 0 2
v 3.5 0 -2
v 3.5 1 3
v 3.5 1 2
v 3.5 1 -2
v 3.5 1 -3
v 3.5 4 3
v 3.5 4 -3
v 0.5 1 3
v 0.5 3 3
v 1.5 3 3
v 1.5 4 3
v 2.5 1 3
v 2.5 4 3
v 3.5 1 3
v 3.5 4 3
v -1.5 0 2
v -1.5 1 2
v -1.5 2 2
v 0.5 1 2
v 0.5 2 2
v 0.5 3 2
v 0.5 4 2
v 1.5 3 2
v 1.5 4 2
v 2.5 1 2
v 3.5 0 2
v 3.5 1 2
v -3.5 0 1
v -3.5 1 1
v -1.5 0 1
v -1.5 1 1
v -3.5 0 -1
v -3.5 1 -1
v -1.5 0 -1
v -1.5 1 -1
v -1.5 0 -2
v -1.5 1 -2
v -1.5 2 -2
v 0.5 1 -2
v 0.5 2 -2
v 0.5 3 -2
v 0.5 4 -2
v 1.5 3 -2
v 1.5 4 -2
v 2.5 1 -2
v 3.5 0 -2
v 3.5 1 -2
v 0.5 1 -3
v 0.5 3 -3
v 1.5 3 -3
v 1.5 4 -3
v 2.5 1 -3
v 2.5 4 -3
v 3.5 1 -3
v 3.5 4 -3
v -1.5 0 2
v 3.5 0 2
v -3.5 0 1
v -1.5 0 1
v -3.5 0 -1
v -1.5 0 -1
v -1.5 0 -2
v 3.5 0 -2
v 0.5 1 3
v 2.5 1 3
v 3.5 1 3
v 0.5 1 2
v 2.5 1 2
v 3.5 1 2
v 0.5 1 -2
v 2.5 1 -2
v 3.5 1 -2
v 0.5 1 -3
v 2.5 1 -3
v 3.5 1 -3
v -3.5 1 1
v -1.5 1 1
v -3.5 1 -1
v -1.5 1 -1
v -1.5 2 2
v 0.5 2 2
v -1.5 2 -2
v 0.5 2 -2
v 0.5 3 3
v 1.5 3 3
v 0.5 3 2
v 1.5 3 2
v 0.5 3 -2
v 1.5 3 -2
v 0.5 3 -3
v 1.5 3 -3
v 1.5 4 3
v 2.5 4 3
v 3.5 4 3
v 0.5 4 2
v 1.5 4 2
v 0.5 4 -2
v 1.5 4 -2
v 1.5 4 -3
v 2.5 4 -3
v 3.5 4 -3

# faces
f 3/1/1 2/1/1 1/1/1
f 4/1/1 2/1/1 3/1/1
f 9/1/1 6/1/1 5/1/1
f 10/1/1 6/1/1 9/1/1
f 11/1/1 8/1/1 7/1/1
f 12/1/1 8/1/1 11/1/1
f 13/2/1 10/2/1 9/2/1
f 13/2/1 11/2/1 10/2/1
f 13/2/1 12/2/1 11/2/1
f 14/2/1 12/2/1 13/2/1
f 19/2/1 16/2/1 15/2/1
f 20/2/1 18/2/1 17/2/1
f 21/2/1 19/2/1 15/2/1
f 21/2/1 20/2/1 19/2/1
f 22/2/1 20/2/1 21/2/1
f 23/2/1 18/2/1 20/2/1
f 23/2/1 20/2/1 22/2/1
f 24/2/1 18/2/1 23/2/1
f 25/2/1 23/2/1 22/2/1
f 26/2/1 23/2/1 25/2/1
f 31/2/1 28/2/1 27/2/1
f 32/2/1 28/2/1 31/2/1
f 33/2/1 30/2/1 29/2/1
f 34/2/1 30/2/1 33/2/1
f 35/1/2 36/1/2 38/1/2
f 38/1/2 36/1/2 39/1/2
f 37/1/2 38/1/2 41/1/2
f 39/1/2 40/1/2 41/1/2
f 38/1/2 39/1/2 41/1/2
f 41/1/2 40/1/2 42/1/2
f 45/2/3 44/2/3 43/2/3
f 47/2/3 45/2/3 43/2/3
f 47/2/3 46/2/3 45/2/3
f 48/2/3 46/2/3 47/2/3
f 49/1/3 48/1/3 47/1/3
f 50/1/3 48/1/3 49/1/3
f 54/1/3 52/1/3 51/1/3
f 54/2/3 53/2/3 52/2/3
f 55/2/3 53/2/3 54/2/3
f 58/2/3 57/2/3 56/2/3
f 59/2/3 57/2/3 58/2/3
f 60/1/3 54/1/3 51/1/3
f 61/1/3 60/1/3 51/1/3
f 62/1/3 60/1/3 61/1/3
f 65/1/3 64/1/3 63/1/3
f 66/1/3 64/1/3 65/1/3
f 67/1/4 68/1/4 69/1/4
f 69/1/4 68/1/4 70/1/4
f 71/1/4 72/1/4 74/1/4
f 72/2/4 73/2/4 74/2/4
f 74/2/4 73/2/4 75/2/4
f 76/2/4 77/2/4 78/2/4
f 78/2/4 77/2/4 79/2/4
f 71/1/4 74/1/4 80/1/4
f 71/1/4 80/1/4 81/1/4
f 81/1/4 80/1/4 82/1/4
f 83/2/4 84/2/4 85/2/4
f 83/2/4 85/2/4 87/2/4
f 85/2/4 86/2/4 87/2/4
f 87/2/4 86/2/4 88/2/4
f 87/1/4 88/1/4 89/1/4
f 89/1/4 88/1/4 90/1/4
f 94/1/5 92/1/5 91/1/5
f 95/1/5 94/1/5 93/1/5
f 96/1/5 92/1/5 94/1/5
f 96/1/5 94/1/5 95/1/5
f 97/1/5 92/1/5 96/1/5
f 98/1/5 92/1/5 97/1/5
f 102/2/5 100/2/5 99/2/5
f 103/1/5 101/1/5 100/1/5
f 103/2/5 100/2/5 102/2/5
f 104/1/5 101/1/5 103/1/5
f 108/2/5 106/2/5 105/2/5
f 109/1/5 107/1/5 106/1/5
f 109/2/5 106/2/5 108/2/5
f 110/1/5 107/1/5 109/1/5
f 111/1/6 112/1/6 113/1/6
f 113/1/6 112/1/6 114/1/6
f 115/2/6 116/2/6 117/2/6
f 117/2/6 116/2/6 118/2/6
f 119/2/6 120/2/6 121/2/6
f 121/2/6 120/2/6 122/2/6
f 123/2/6 124/2/6 125/2/6
f 125/2/6 124/2/6 126/2/6
f 127/2/6 128/2/6 131/2/6
f 130/2/6 131/2/6 132/2/6
f 131/2/6 128/2/6 133/2/6
f 132/2/6 131/2/6 133/2/6
f 133/2/6 128/2/6 134/2/6
f 128/1/6 129/1/6 135/1/6
f 134/2/6 128/2/6 135/2/6
f 135/1/6 129/1/6 136/1/6
